<svg height="331.697" viewBox="0 58.4203 1000 331.697" width="1000" xmlns="http://www.w3.org/2000/svg"><path d="m981.558 348.845c0 11.045-8.955 20-20 20h-928.7552c-11.0457 0-20-8.955-20-20v-249.8501c0-11.0457 8.9543-20 20-20h928.7552c11.045 0 20 8.9543 20 20z" fill="#efefef"/><path d="m981.558 348.845c0 11.045-8.955 20-20 20h-928.7552c-11.0457 0-20-8.955-20-20v-249.8501c0-11.0457 8.9543-20 20-20h928.7552c11.045 0 20 8.9543 20 20z" fill="#212121"/><path d="m69.5869 289.495v-115.001h67.7961v10.77h-54.6033v39.429h49.8393v10.587h-49.8393v43.445h55.1533v10.77z" fill="#fff"/><path d="m69.5869 289.495v-115.001h67.7961v10.77h-54.6033v39.429h49.8393v10.587h-49.8393v43.445h55.1533v10.77z" fill="none" stroke="#fff" stroke-miterlimit="10"/><path d="m147.461 289.495s29.867-43.445 29.867-43.445-28.401-42.35-28.401-42.35h14.475s15.025 23.001 15.025 23.001 6.78 11.317 6.78 11.317 6.963-11.865 6.963-11.865 14.109-22.453 14.109-22.453h13.926s-28.218 42.35-28.218 42.35 30.233 43.445 30.233 43.445h-14.658s-14.842-21.54-14.842-21.54-8.429-13.508-8.429-13.508-8.062 13.143-8.062 13.143-14.476 21.905-14.476 21.905z" fill="#fff"/><path d="m147.461 289.495s29.867-43.445 29.867-43.445-28.401-42.35-28.401-42.35h14.475s15.025 23.001 15.025 23.001 6.78 11.317 6.78 11.317 6.963-11.865 6.963-11.865 14.109-22.453 14.109-22.453h13.926s-28.218 42.35-28.218 42.35 30.233 43.445 30.233 43.445h-14.658s-14.842-21.54-14.842-21.54-8.429-13.508-8.429-13.508-8.062 13.143-8.062 13.143-14.476 21.905-14.476 21.905z" fill="none" stroke="#fff" stroke-miterlimit="10"/><path d="m237.062 331.48v-129.058h10.628s2.015 11.136 2.015 11.136c3.054-2.921 6.688-5.507 10.903-7.759 4.214-2.251 9.253-3.377 15.116-3.377 10.872 0 19.728 3.651 26.569 10.953s10.261 17.707 10.261 31.215c0 10.709-2.046 19.471-6.138 26.286s-9.345 11.865-15.758 15.151c-6.413 3.285-13.162 4.928-20.248 4.928-8.184 0-15.025-1.947-20.522-5.841v46.366zm31.699-50.565c5.131 0 10.017-1.156 14.659-3.468s8.429-6.115 11.361-11.409c2.931-5.293 4.397-12.382 4.397-21.266 0-9.979-2.138-17.798-6.413-23.456-4.275-5.659-10.872-8.489-19.789-8.489-5.253 0-9.925 1.339-14.018 4.016-4.092 2.678-7.115 5.294-9.07 7.85v50.199c2.81 2.068 5.833 3.59 9.07 4.563 3.238.974 6.505 1.46 9.803 1.46z" fill="#fff"/><path d="m237.062 331.48v-129.058h10.628s2.015 11.136 2.015 11.136c3.054-2.921 6.688-5.507 10.903-7.759 4.214-2.251 9.253-3.377 15.116-3.377 10.872 0 19.728 3.651 26.569 10.953s10.261 17.707 10.261 31.215c0 10.709-2.046 19.471-6.138 26.286s-9.345 11.865-15.758 15.151c-6.413 3.285-13.162 4.928-20.248 4.928-8.184 0-15.025-1.947-20.522-5.841v46.366zm31.699-50.565c5.131 0 10.017-1.156 14.659-3.468s8.429-6.115 11.361-11.409c2.931-5.293 4.397-12.382 4.397-21.266 0-9.979-2.138-17.798-6.413-23.456-4.275-5.659-10.872-8.489-19.789-8.489-5.253 0-9.925 1.339-14.018 4.016-4.092 2.678-7.115 5.294-9.07 7.85v50.199c2.81 2.068 5.833 3.59 9.07 4.563 3.238.974 6.505 1.46 9.803 1.46z" fill="none" stroke="#fff" stroke-miterlimit="10"/><path d="m332.71 289.495v-85.795h9.161s2.566 17.159 2.566 17.159c2.076-5.354 5.558-9.766 10.444-13.234s10.444-5.203 16.674-5.203c3.054 0 5.65.274 7.788.822 2.137.548 3.939 1.126 5.405 1.734 0 0-2.565 11.135-2.565 11.135-1.466-.608-3.085-1.156-4.856-1.643s-3.878-.73-6.322-.73c-6.962 0-12.948 2.464-17.956 7.393-5.009 4.929-7.513 12.322-7.513 22.179v46.183z" fill="#fff"/><path d="m332.71 289.495v-85.795h9.161s2.566 17.159 2.566 17.159c2.076-5.354 5.558-9.766 10.444-13.234s10.444-5.203 16.674-5.203c3.054 0 5.65.274 7.788.822 2.137.548 3.939 1.126 5.405 1.734 0 0-2.565 11.135-2.565 11.135-1.466-.608-3.085-1.156-4.856-1.643s-3.878-.73-6.322-.73c-6.962 0-12.948 2.464-17.956 7.393-5.009 4.929-7.513 12.322-7.513 22.179v46.183z" fill="none" stroke="#fff" stroke-miterlimit="10"/><path d="m433.671 290.955c-7.94 0-15.208-1.521-21.804-4.563-6.597-3.043-11.85-7.819-15.759-14.33-3.909-6.51-5.863-14.938-5.863-25.282 0-9.005 1.68-16.824 5.039-23.456 3.359-6.633 8.062-11.774 14.109-15.425s13.101-5.477 21.163-5.477c6.963 0 13.04 1.582 18.232 4.747 5.192 3.164 9.223 7.545 12.093 13.143 2.871 5.598 4.306 12.169 4.306 19.714v7.484h-61.566v1.643c0 9.979 2.749 17.768 8.246 23.366s12.948 8.396 22.354 8.396c4.275 0 8.276-.334 12.002-1.004 3.725-.669 7.482-1.794 11.269-3.377 0 0 2.748 9.675 2.748 9.675-3.298 1.461-7.299 2.617-12.002 3.468-4.703.852-9.558 1.278-14.567 1.278zm-29.684-52.937s47.824-.182 47.824-.182c0-4.503-.733-8.702-2.198-12.596-1.466-3.894-3.818-7.058-7.055-9.492s-7.482-3.651-12.735-3.651c-7.085 0-12.918 2.343-17.498 7.028-4.581 4.685-7.36 10.983-8.338 18.893z" fill="#fff"/><path d="m433.671 290.955c-7.94 0-15.208-1.521-21.804-4.563-6.597-3.043-11.85-7.819-15.759-14.33-3.909-6.51-5.863-14.938-5.863-25.282 0-9.005 1.68-16.824 5.039-23.456 3.359-6.633 8.062-11.774 14.109-15.425s13.101-5.477 21.163-5.477c6.963 0 13.04 1.582 18.232 4.747 5.192 3.164 9.223 7.545 12.093 13.143 2.871 5.598 4.306 12.169 4.306 19.714v7.484h-61.566v1.643c0 9.979 2.749 17.768 8.246 23.366s12.948 8.396 22.354 8.396c4.275 0 8.276-.334 12.002-1.004 3.725-.669 7.482-1.794 11.269-3.377 0 0 2.748 9.675 2.748 9.675-3.298 1.461-7.299 2.617-12.002 3.468-4.703.852-9.558 1.278-14.567 1.278zm-29.684-52.937s47.824-.182 47.824-.182c0-4.503-.733-8.702-2.198-12.596-1.466-3.894-3.818-7.058-7.055-9.492s-7.482-3.651-12.735-3.651c-7.085 0-12.918 2.343-17.498 7.028-4.581 4.685-7.36 10.983-8.338 18.893z" fill="none" stroke="#fff" stroke-miterlimit="10"/><path d="m506.781 290.955c-5.497 0-10.536-.456-15.116-1.369-4.581-.912-8.582-2.16-12.002-3.742 0 0 3.115-10.04 3.115-10.04 3.42 1.582 7.024 2.83 10.811 3.742 3.786.913 7.879 1.369 12.276 1.369 6.108 0 10.964-1.156 14.567-3.468 3.604-2.312 5.406-5.841 5.406-10.587 0-3.894-1.405-6.967-4.215-9.219-2.809-2.251-7.268-4.289-13.376-6.115 0 0-5.68-1.825-5.68-1.825-7.574-2.434-13.223-5.568-16.949-9.401s-5.589-8.549-5.589-14.147c0-7.18 2.81-12.93 8.429-17.25s12.765-6.481 21.438-6.481c4.031 0 8.246.366 12.643 1.096 4.398.73 8.49 1.947 12.277 3.651 0 0-2.932 9.857-2.932 9.857-3.664-1.704-7.115-2.89-10.352-3.56-3.238-.669-6.627-1.004-10.17-1.004-6.108 0-10.719 1.217-13.834 3.651s-4.672 5.598-4.672 9.492c0 3.408 1.191 6.115 3.573 8.123s6.932 4.047 13.65 6.116c0 0 5.497 1.642 5.497 1.642 7.574 2.191 13.315 5.264 17.224 9.219s5.864 9.036 5.864 15.242c0 7.302-2.749 13.295-8.246 17.98-5.497 4.686-13.376 7.028-23.637 7.028z" fill="#fff"/><path d="m506.781 290.955c-5.497 0-10.536-.456-15.116-1.369-4.581-.912-8.582-2.16-12.002-3.742 0 0 3.115-10.04 3.115-10.04 3.42 1.582 7.024 2.83 10.811 3.742 3.786.913 7.879 1.369 12.276 1.369 6.108 0 10.964-1.156 14.567-3.468 3.604-2.312 5.406-5.841 5.406-10.587 0-3.894-1.405-6.967-4.215-9.219-2.809-2.251-7.268-4.289-13.376-6.115 0 0-5.68-1.825-5.68-1.825-7.574-2.434-13.223-5.568-16.949-9.401s-5.589-8.549-5.589-14.147c0-7.18 2.81-12.93 8.429-17.25s12.765-6.481 21.438-6.481c4.031 0 8.246.366 12.643 1.096 4.398.73 8.49 1.947 12.277 3.651 0 0-2.932 9.857-2.932 9.857-3.664-1.704-7.115-2.89-10.352-3.56-3.238-.669-6.627-1.004-10.17-1.004-6.108 0-10.719 1.217-13.834 3.651s-4.672 5.598-4.672 9.492c0 3.408 1.191 6.115 3.573 8.123s6.932 4.047 13.65 6.116c0 0 5.497 1.642 5.497 1.642 7.574 2.191 13.315 5.264 17.224 9.219s5.864 9.036 5.864 15.242c0 7.302-2.749 13.295-8.246 17.98-5.497 4.686-13.376 7.028-23.637 7.028z" fill="none" stroke="#fff" stroke-miterlimit="10"/><path d="m580.258 290.955c-5.497 0-10.536-.456-15.117-1.369-4.581-.912-8.581-2.16-12.002-3.742 0 0 3.115-10.04 3.115-10.04 3.421 1.582 7.024 2.83 10.811 3.742 3.787.913 7.879 1.369 12.277 1.369 6.107 0 10.963-1.156 14.567-3.468 3.603-2.312 5.405-5.841 5.405-10.587 0-3.894-1.405-6.967-4.214-9.219-2.81-2.251-7.269-4.289-13.376-6.115 0 0-5.681-1.825-5.681-1.825-7.573-2.434-13.223-5.568-16.949-9.401-3.725-3.833-5.588-8.549-5.588-14.147 0-7.18 2.809-12.93 8.428-17.25 5.62-4.32 12.766-6.481 21.439-6.481 4.031 0 8.245.366 12.643 1.096 4.397.73 8.49 1.947 12.276 3.651 0 0-2.931 9.857-2.931 9.857-3.665-1.704-7.116-2.89-10.353-3.56-3.237-.669-6.627-1.004-10.169-1.004-6.108 0-10.72 1.217-13.835 3.651-3.114 2.434-4.672 5.598-4.672 9.492 0 3.408 1.191 6.115 3.573 8.123s6.932 4.047 13.651 6.116c0 0 5.497 1.642 5.497 1.642 7.574 2.191 13.315 5.264 17.224 9.219s5.863 9.036 5.863 15.242c0 7.302-2.748 13.295-8.245 17.98-5.497 4.686-13.376 7.028-23.637 7.028z" fill="#fff"/><path d="m580.258 290.955c-5.497 0-10.536-.456-15.117-1.369-4.581-.912-8.581-2.16-12.002-3.742 0 0 3.115-10.04 3.115-10.04 3.421 1.582 7.024 2.83 10.811 3.742 3.787.913 7.879 1.369 12.277 1.369 6.107 0 10.963-1.156 14.567-3.468 3.603-2.312 5.405-5.841 5.405-10.587 0-3.894-1.405-6.967-4.214-9.219-2.81-2.251-7.269-4.289-13.376-6.115 0 0-5.681-1.825-5.681-1.825-7.573-2.434-13.223-5.568-16.949-9.401-3.725-3.833-5.588-8.549-5.588-14.147 0-7.18 2.809-12.93 8.428-17.25 5.62-4.32 12.766-6.481 21.439-6.481 4.031 0 8.245.366 12.643 1.096 4.397.73 8.49 1.947 12.276 3.651 0 0-2.931 9.857-2.931 9.857-3.665-1.704-7.116-2.89-10.353-3.56-3.237-.669-6.627-1.004-10.169-1.004-6.108 0-10.72 1.217-13.835 3.651-3.114 2.434-4.672 5.598-4.672 9.492 0 3.408 1.191 6.115 3.573 8.123s6.932 4.047 13.651 6.116c0 0 5.497 1.642 5.497 1.642 7.574 2.191 13.315 5.264 17.224 9.219s5.863 9.036 5.863 15.242c0 7.302-2.748 13.295-8.245 17.98-5.497 4.686-13.376 7.028-23.637 7.028z" fill="none" stroke="#fff" stroke-miterlimit="10"/><path d="m640.725 181.613c-2.321 0-4.367-.791-6.139-2.373-1.771-1.582-2.656-3.651-2.656-6.207 0-2.677.855-4.837 2.565-6.48s3.726-2.464 6.047-2.464c2.32 0 4.336.791 6.046 2.373s2.565 3.772 2.565 6.571c0 2.556-.855 4.625-2.565 6.207s-3.664 2.373-5.863 2.373z" fill="#4657ff"/><path d="m634.128 289.495v-85.795h12.827v85.795z" fill="#fff"/><path d="m640.725 181.113c-2.198 0-4.125-.746-5.806-2.246-1.662-1.485-2.489-3.418-2.489-5.834 0-2.545.803-4.574 2.411-6.119 1.618-1.554 3.509-2.325 5.701-2.325 2.194 0 4.089.743 5.707 2.24 1.602 1.482 2.404 3.538 2.404 6.204 0 2.42-.799 4.355-2.404 5.84-1.62 1.497-3.453 2.24-5.524 2.24z" fill="#fff"/><path d="m640.725 182.113c2.326 0 4.402-.84 6.203-2.506 1.815-1.68 2.725-3.882 2.725-6.574 0-2.932-.907-5.256-2.725-6.938-1.803-1.668-3.94-2.506-6.386-2.506-2.451 0-4.591.872-6.394 2.603-1.811 1.741-2.718 4.032-2.718 6.841 0 2.695.944 4.901 2.823 6.58 1.863 1.663 4.027 2.5 6.472 2.5z" fill="#d600aa"/><path d="m634.628 288.995v-84.795h11.827v84.795z" fill="#fff"/><path d="m633.628 289.995h13.827v-86.795h-13.827z" fill="#d600aa"/><path d="m708.704 290.955c-7.573 0-14.384-1.643-20.43-4.928-6.047-3.286-10.811-8.184-14.292-14.695-3.482-6.511-5.223-14.451-5.223-23.822 0-9.614 1.802-17.767 5.406-24.46 3.603-6.694 8.49-11.805 14.658-15.334 6.169-3.529 13.041-5.294 20.614-5.294 7.574 0 14.353 1.643 20.339 4.929s10.719 8.123 14.201 14.512c3.481 6.389 5.222 14.33 5.222 23.822 0 9.614-1.772 17.798-5.314 24.552-3.543 6.754-8.368 11.895-14.475 15.425-6.108 3.529-13.01 5.293-20.706 5.293zm.55-10.04c4.642 0 8.978-1.064 13.009-3.194 4.032-2.13 7.299-5.72 9.803-10.77 2.505-5.05 3.757-11.835 3.757-20.353 0-8.032-1.283-14.573-3.848-19.624-2.565-5.05-5.894-8.731-9.986-11.043-4.093-2.313-8.46-3.469-13.101-3.469-4.52 0-8.826 1.096-12.918 3.286-4.093 2.191-7.421 5.781-9.987 10.77-2.565 4.989-3.848 11.683-3.848 20.08 0 8.153 1.314 14.755 3.94 19.805 2.626 5.051 6.016 8.732 10.169 11.044 4.154 2.312 8.49 3.468 13.01 3.468z" fill="#4657ff"/><path d="m708.704 290.955c-7.573 0-14.384-1.643-20.43-4.928-6.047-3.286-10.811-8.184-14.292-14.695-3.482-6.511-5.223-14.451-5.223-23.822 0-9.614 1.802-17.767 5.406-24.46 3.603-6.694 8.49-11.805 14.658-15.334 6.169-3.529 13.041-5.294 20.614-5.294 7.574 0 14.353 1.643 20.339 4.929s10.719 8.123 14.201 14.512c3.481 6.389 5.222 14.33 5.222 23.822 0 9.614-1.772 17.798-5.314 24.552-3.543 6.754-8.368 11.895-14.475 15.425-6.108 3.529-13.01 5.293-20.706 5.293zm.55-10.04c4.642 0 8.978-1.064 13.009-3.194 4.032-2.13 7.299-5.72 9.803-10.77 2.505-5.05 3.757-11.835 3.757-20.353 0-8.032-1.283-14.573-3.848-19.624-2.565-5.05-5.894-8.731-9.986-11.043-4.093-2.313-8.46-3.469-13.101-3.469-4.52 0-8.826 1.096-12.918 3.286-4.093 2.191-7.421 5.781-9.987 10.77-2.565 4.989-3.848 11.683-3.848 20.08 0 8.153 1.314 14.755 3.94 19.805 2.626 5.051 6.016 8.732 10.169 11.044 4.154 2.312 8.49 3.468 13.01 3.468z" fill="none" stroke="#4657ff" stroke-miterlimit="10"/><path d="m769.904 289.495v-85.795h9.895s1.832 11.865 1.832 11.865c4.275-4.137 8.826-7.362 13.651-9.674s10.23-3.469 16.216-3.469c8.795 0 15.666 2.465 20.614 7.393 4.947 4.929 7.421 11.774 7.421 20.536v59.144h-12.827v-56.771c0-5.841-1.435-10.617-4.306-14.329-2.87-3.712-7.726-5.568-14.567-5.568-4.397 0-8.795 1.096-13.192 3.286-4.398 2.191-8.368 5.233-11.911 9.127v64.255z" fill="#fff"/><path d="m769.904 289.495v-85.795h9.895s1.832 11.865 1.832 11.865c4.275-4.137 8.826-7.362 13.651-9.674s10.23-3.469 16.216-3.469c8.795 0 15.666 2.465 20.614 7.393 4.947 4.929 7.421 11.774 7.421 20.536v59.144h-12.827v-56.771c0-5.841-1.435-10.617-4.306-14.329-2.87-3.712-7.726-5.568-14.567-5.568-4.397 0-8.795 1.096-13.192 3.286-4.398 2.191-8.368 5.233-11.911 9.127v64.255z" fill="none" stroke="#fff" stroke-miterlimit="10"/><path d="m887.173 290.955c-5.497 0-10.536-.456-15.116-1.369-4.581-.912-8.582-2.16-12.002-3.742 0 0 3.115-10.04 3.115-10.04 3.42 1.582 7.024 2.83 10.811 3.742 3.786.913 7.879 1.369 12.276 1.369 6.108 0 10.964-1.156 14.567-3.468 3.604-2.312 5.406-5.841 5.406-10.587 0-3.894-1.405-6.967-4.215-9.219-2.809-2.251-7.268-4.289-13.376-6.115 0 0-5.68-1.825-5.68-1.825-7.574-2.434-13.223-5.568-16.949-9.401s-5.589-8.549-5.589-14.147c0-7.18 2.81-12.93 8.429-17.25s12.765-6.481 21.438-6.481c4.031 0 8.246.366 12.643 1.096 4.398.73 8.49 1.947 12.277 3.651 0 0-2.932 9.857-2.932 9.857-3.664-1.704-7.115-2.89-10.352-3.56-3.238-.669-6.627-1.004-10.17-1.004-6.108 0-10.719 1.217-13.834 3.651s-4.672 5.598-4.672 9.492c0 3.408 1.191 6.115 3.573 8.123s6.932 4.047 13.651 6.116c0 0 5.497 1.642 5.497 1.642 7.573 2.191 13.314 5.264 17.223 9.219s5.864 9.036 5.864 15.242c0 7.302-2.749 13.295-8.246 17.98-5.497 4.686-13.376 7.028-23.637 7.028z" fill="#fff"/><path d="m887.173 290.955c-5.497 0-10.536-.456-15.116-1.369-4.581-.912-8.582-2.16-12.002-3.742 0 0 3.115-10.04 3.115-10.04 3.42 1.582 7.024 2.83 10.811 3.742 3.786.913 7.879 1.369 12.276 1.369 6.108 0 10.964-1.156 14.567-3.468 3.604-2.312 5.406-5.841 5.406-10.587 0-3.894-1.405-6.967-4.215-9.219-2.809-2.251-7.268-4.289-13.376-6.115 0 0-5.68-1.825-5.68-1.825-7.574-2.434-13.223-5.568-16.949-9.401s-5.589-8.549-5.589-14.147c0-7.18 2.81-12.93 8.429-17.25s12.765-6.481 21.438-6.481c4.031 0 8.246.366 12.643 1.096 4.398.73 8.49 1.947 12.277 3.651 0 0-2.932 9.857-2.932 9.857-3.664-1.704-7.115-2.89-10.352-3.56-3.238-.669-6.627-1.004-10.17-1.004-6.108 0-10.719 1.217-13.834 3.651s-4.672 5.598-4.672 9.492c0 3.408 1.191 6.115 3.573 8.123s6.932 4.047 13.651 6.116c0 0 5.497 1.642 5.497 1.642 7.573 2.191 13.314 5.264 17.223 9.219s5.864 9.036 5.864 15.242c0 7.302-2.749 13.295-8.246 17.98-5.497 4.686-13.376 7.028-23.637 7.028z" fill="none" stroke="#fff" stroke-miterlimit="10"/><g fill="#4657ff"><path d="m695.987 229.026c3.086 0 5.589 2.502 5.589 5.589 0 3.086-2.503 5.588-5.589 5.588s-5.588-2.502-5.588-5.588c0-3.087 2.502-5.589 5.588-5.589z" fill-rule="evenodd"/><path d="m695.987 229.483c2.832-.001 5.133 2.299 5.131 5.132.002 2.832-2.299 5.132-5.131 5.131-2.832.001-5.132-2.299-5.131-5.131-.001-2.833 2.299-5.133 5.131-5.132zm0-.914c-3.34.001-6.044 2.705-6.046 6.046.002 3.34 2.706 6.044 6.046 6.045 3.34-.001 6.044-2.705 6.046-6.045-.002-3.341-2.706-6.045-6.046-6.046z"/><path d="m718.875 228.963c3.086 0 5.588 2.502 5.588 5.588 0 3.087-2.502 5.589-5.588 5.589-3.087 0-5.589-2.502-5.589-5.589 0-3.086 2.502-5.588 5.589-5.588z" fill-rule="evenodd"/><path d="m718.875 229.42c2.832-.001 5.132 2.299 5.131 5.131.001 2.833-2.299 5.133-5.131 5.131-2.833.002-5.133-2.298-5.131-5.131-.002-2.832 2.298-5.132 5.131-5.131zm0-.915c-3.34.002-6.045 2.706-6.046 6.046.001 3.341 2.706 6.045 6.046 6.046 3.34-.001 6.044-2.705 6.046-6.046-.002-3.34-2.706-6.044-6.046-6.046z"/></g><path d="m628.983 135.983c3.086 0 5.588 2.502 5.588 5.589 0 3.086-2.502 5.588-5.588 5.588-3.087 0-5.589-2.502-5.589-5.588 0-3.087 2.502-5.589 5.589-5.589z" fill="#d600aa" fill-rule="evenodd"/><path d="m628.983 136.44c2.832-.001 5.132 2.299 5.131 5.132.001 2.832-2.299 5.132-5.131 5.131-2.833.001-5.133-2.299-5.132-5.131-.001-2.833 2.299-5.133 5.132-5.132zm0-.914c-3.341.001-6.045 2.705-6.046 6.046.001 3.34 2.705 6.044 6.046 6.045 3.34-.001 6.044-2.705 6.045-6.045-.001-3.341-2.705-6.045-6.045-6.046z" fill="#d600aa"/><path d="m651.87 135.92c3.087 0 5.589 2.502 5.589 5.588 0 3.087-2.502 5.589-5.589 5.589-3.086 0-5.588-2.502-5.588-5.589 0-3.086 2.502-5.588 5.588-5.588z" fill="#d600aa" fill-rule="evenodd"/><path d="m651.87 136.377c2.833-.001 5.133 2.299 5.132 5.131.001 2.833-2.299 5.133-5.132 5.131-2.832.002-5.132-2.298-5.131-5.131-.001-2.832 2.299-5.132 5.131-5.131zm0-.915c-3.34.002-6.044 2.706-6.045 6.046.001 3.341 2.705 6.045 6.045 6.046 3.341-.001 6.045-2.705 6.046-6.046-.001-3.34-2.705-6.044-6.046-6.046z" fill="#d600aa"/><path d="m690.932 261.401c5.215 2.963 11.251 5.322 17.88 5.492.065.001.057.001.12.001 6.748-.028 12.86-2.477 18.064-5.524 2.163-1.244 2.906-4.21 1.628-6.259-1.167-2.115-4.12-2.91-6.26-1.627-4.333 2.554-9.003 4.267-13.452 4.263.04.001.08.001.12.002-4.517-.098-9.198-1.796-13.573-4.296-2.157-1.254-5.098-.42-6.237 1.71-1.251 2.066-.469 5.022 1.71 6.238z" fill="#4657ff"/><path d="m639.962 197.048c-7.573 0-14.383-1.644-20.43-4.931s-10.811-8.188-14.292-14.701c-3.482-6.514-5.222-14.458-5.222-23.833 0-9.618 1.801-17.775 5.405-24.472 3.604-6.696 8.49-11.809 14.659-15.34 6.168-3.531 13.04-5.296 20.613-5.296 7.574 0 14.354 1.643 20.339 4.931 5.986 3.287 10.719 8.126 14.201 14.518 3.481 6.392 5.222 14.336 5.222 23.833 0 9.618-1.771 17.806-5.314 24.563-3.542 6.757-8.367 11.901-14.475 15.432-6.108 3.53-13.01 5.296-20.706 5.296zm.55-10.045c4.642 0 8.979-1.065 13.01-3.196 4.031-2.13 7.298-5.722 9.803-10.774 2.504-5.053 3.756-11.841 3.756-20.363 0-8.036-1.283-14.58-3.848-19.632-2.565-5.053-5.894-8.736-9.986-11.049s-8.459-3.47-13.101-3.47c-4.52 0-8.826 1.096-12.918 3.287-4.093 2.192-7.421 5.784-9.986 10.775-2.566 4.992-3.848 11.688-3.848 20.089 0 8.157 1.313 14.762 3.939 19.815 2.626 5.052 6.016 8.735 10.17 11.048 4.153 2.314 8.489 3.47 13.009 3.47z" fill="#d600aa"/></svg>